<svg xmlns="http://www.w3.org/2000/svg" width="31" height="22.779" viewBox="0 0 31 22.779">
  <g id="グループ_9" data-name="グループ 9" transform="translate(-639.082 -38.325)">
    <g id="グループ_8" data-name="グループ 8" transform="translate(639.082 38.326)">
      <path id="パス_34" data-name="パス 34" d="M696.4,38.326h0Z" transform="translate(-680.833 -38.326)" fill="#53585c"/>
      <path id="パス_35" data-name="パス 35" d="M669.558,44.051c-2.037-3.759-8.567-5.725-14.911-5.725s-13,1.966-15.041,5.725c-.415.837-.789,2.884-.272,3.486a2.465,2.465,0,0,0,1.79.593c1.957,0,5.286.02,5.286.02a.978.978,0,0,0,.9-.747c.26-.848-.119-3.232-1.032-3.382a15.457,15.457,0,0,1,2.636-.738v2.175c0,2.287-1.38,4.082-3.887,6.338-3.026,2.722-3.005,5.29-3.005,8.165a1.059,1.059,0,0,0,1.077,1.146h22.665c1.015,0,1.216-.386,1.216-1.146,0-2.875-.119-5.443-3.005-8.164-2.454-2.314-3.888-4.051-3.888-6.338V43.242a15.994,15.994,0,0,1,2.793.778c-.913.15-1.292,2.534-1.032,3.382a.978.978,0,0,0,.9.747s3.33-.02,5.287-.02a2.465,2.465,0,0,0,1.79-.593C670.348,46.935,669.973,44.887,669.558,44.051ZM657.135,45.7h-5.262V42.846c.983-.1,1.94-.15,2.774-.15.761,0,1.613.043,2.488.125Z" transform="translate(-639.082 -38.326)" fill="#53585c"/>
    </g>
    <circle id="楕円形_1" data-name="楕円形 1" cx="5.289" cy="5.289" r="5.289" transform="translate(648.212 57.878) rotate(-76.604)" fill="#fff"/>
  </g>
</svg>
